<?xml version="1.0" encoding="UTF-8" standalone="no"?>
<svg
   viewBox="0 0 1600 600"
   width="1600"
   height="600"
   font-family="Inter, 'Helvetica Neue', Arial, sans-serif"
   version="1.1"
   id="svg243"
   sodipodi:docname="spatial_ai_banner.svg"
   inkscape:version="1.2.2 (b0a8486541, 2022-12-01)"
   xmlns:inkscape="http://www.inkscape.org/namespaces/inkscape"
   xmlns:sodipodi="http://sodipodi.sourceforge.net/DTD/sodipodi-0.dtd"
   xmlns="http://www.w3.org/2000/svg"
   xmlns:svg="http://www.w3.org/2000/svg">
  <sodipodi:namedview
     id="namedview245"
     pagecolor="#ffffff"
     bordercolor="#000000"
     borderopacity="0.25"
     inkscape:showpageshadow="2"
     inkscape:pageopacity="0.0"
     inkscape:pagecheckerboard="0"
     inkscape:deskcolor="#d1d1d1"
     showgrid="false"
     inkscape:zoom="0.78666667"
     inkscape:cx="727.11864"
     inkscape:cy="177.33051"
     inkscape:window-width="3440"
     inkscape:window-height="1403"
     inkscape:window-x="0"
     inkscape:window-y="0"
     inkscape:window-maximized="1"
     inkscape:current-layer="svg243" />
  <defs
     id="defs31">
    <linearGradient
       id="bg"
       x1="0"
       y1="0"
       x2="1"
       y2="1">
      <stop
         offset="0%"
         stop-color="#001524"
         id="stop2" />
      <stop
         offset="100%"
         stop-color="#1A2A36"
         id="stop4" />
    </linearGradient>
    <radialGradient
       id="glowO"
       cx="1380"
       cy="64"
       r="600"
       gradientUnits="userSpaceOnUse">
      <stop
         offset="0%"
         stop-color="#E8772E"
         stop-opacity="0.55"
         id="stop7" />
      <stop
         offset="55%"
         stop-color="#E8772E"
         stop-opacity="0.12"
         id="stop9" />
      <stop
         offset="100%"
         stop-color="#E8772E"
         stop-opacity="0"
         id="stop11" />
    </radialGradient>
    <radialGradient
       id="glowB"
       cx="110"
       cy="560"
       r="640"
       gradientUnits="userSpaceOnUse">
      <stop
         offset="0%"
         stop-color="#1F6FB2"
         stop-opacity="0.45"
         id="stop14" />
      <stop
         offset="60%"
         stop-color="#1F6FB2"
         stop-opacity="0.10"
         id="stop16" />
      <stop
         offset="100%"
         stop-color="#1F6FB2"
         stop-opacity="0"
         id="stop18" />
    </radialGradient>
    <radialGradient
       id="origin"
       cx="1180"
       cy="300"
       r="28"
       fx="1180"
       fy="300"
       gradientUnits="userSpaceOnUse"
       gradientTransform="matrix(1.2114808,0,0,1.2114808,-248.78572,-62.301793)">
      <stop
         offset="0%"
         stop-color="#FFD9A6"
         id="stop21" />
      <stop
         offset="45%"
         stop-color="#E8772E"
         id="stop23" />
      <stop
         offset="100%"
         stop-color="#C75F1E"
         id="stop25" />
    </radialGradient>
    <filter
       id="soft"
       x="-0.21428571"
       y="-0.21428571"
       width="1.4285714"
       height="1.4285714">
      <feGaussianBlur
         stdDeviation="10"
         id="feGaussianBlur28" />
    </filter>
  </defs>
  <rect
     width="1600"
     height="600"
     fill="url(#bg)"
     id="rect33" />
  <rect
     width="1600"
     height="600"
     fill="url(#glowO)"
     id="rect35" />
  <g
     fill="none"
     stroke-linecap="round"
     id="g69">
    <path
       d="M 1257.70 293.20 A 78 78 0 1 1 1250.69 267.04"
       stroke="#84B9E6"
       stroke-width="15"
       id="path39" />
    <path
       d="M 1274.98 359.35 A 112 112 0 1 1 1289.55 323.29"
       stroke="#7DB2E0"
       stroke-width="15"
       id="path41" />
    <path
       d="M 1232.32 436.30 A 146 146 0 1 1 1275.78 410.19"
       stroke="#76ACDA"
       stroke-width="15"
       id="path43" />
    <path
       d="M 1130.39 473.03 A 180 180 0 1 1 1192.56 479.56"
       stroke="#6FA5D4"
       stroke-width="15"
       id="path45" />
    <path
       d="M 1009.09 428.79 A 214 214 0 1 1 1063.45 479.48"
       stroke="#689FCE"
       stroke-width="15"
       id="path47" />
    <path
       d="M 932.00 300.00 A 248 248 0 1 1 946.96 384.82"
       stroke="#6198C8"
       stroke-width="15"
       id="path49" />
    <path
       d="M 954.78 130.29 A 282 282 0 1 1 910.32 217.55"
       stroke="#5A92C2"
       stroke-width="15"
       id="path51" />
    <path
       d="M 1092.90 -3.76 A 316 316 0 1 1 994.26 44.35"
       stroke="#538BBC"
       stroke-width="15"
       id="path53" />
    <path
       d="M 1305.43 -26.75 A 350 350 0 1 1 1186.11 -49.95"
       stroke="#4C85B6"
       stroke-width="15"
       id="path55" />
    <path
       d="M 1505.65 96.51 A 384 384 0 1 1 1416.41 -2.60"
       stroke="#457EB0"
       stroke-width="15"
       id="path57" />
    <path
       d="M 1596.41 336.43 A 418 418 0 1 1 1583.76 191.81"
       stroke="#3E78AA"
       stroke-width="15"
       id="path59" />
    <path
       d="M 1515.90 602.45 A 452 452 0 1 1 1599.09 469.32"
       stroke="#3771A4"
       stroke-width="15"
       id="path61" />
    <path
       d="M 1272.73 777.07 A 486 486 0 1 1 1430.31 716.58"
       stroke="#306B9E"
       stroke-width="15"
       id="path63" />
    <path
       d="M 952.05 767.37 A 520 520 0 1 1 1125.65 817.15"
       stroke="#296498"
       stroke-width="15"
       id="path65" />
    <path
       d="M 686.38 551.51 A 554 554 0 1 1 802.17 705.17"
       stroke="#235E92"
       stroke-width="15"
       id="path67" />
  </g>
  <g
     id="g127">
    <circle
       cx="1106.4"
       cy="447.0"
       r="1.6"
       fill="#84B9E6"
       opacity="0.43"
       id="circle71" />
    <circle
       cx="1099.1"
       cy="390.9"
       r="1.6"
       fill="#84B9E6"
       opacity="0.41"
       id="circle73" />
    <circle
       cx="1303.8"
       cy="358.1"
       r="2.8"
       fill="#E8772E"
       opacity="0.33"
       id="circle75" />
    <circle
       cx="1244.2"
       cy="678.2"
       r="2.4"
       fill="#84B9E6"
       opacity="0.40"
       id="circle77" />
    <circle
       cx="1295.1"
       cy="282.7"
       r="2.0"
       fill="#84B9E6"
       opacity="0.34"
       id="circle79" />
    <circle
       cx="1354.9"
       cy="459.8"
       r="1.8"
       fill="#84B9E6"
       opacity="0.45"
       id="circle81" />
    <circle
       cx="1008.9"
       cy="96.0"
       r="1.6"
       fill="#84B9E6"
       opacity="0.31"
       id="circle83" />
    <circle
       cx="1291.5"
       cy="692.5"
       r="2.0"
       fill="#E8772E"
       opacity="0.45"
       id="circle85" />
    <circle
       cx="957.1"
       cy="367.5"
       r="2.6"
       fill="#84B9E6"
       opacity="0.36"
       id="circle87" />
    <circle
       cx="879.5"
       cy="148.3"
       r="2.7"
       fill="#84B9E6"
       opacity="0.37"
       id="circle89" />
    <circle
       cx="1328.2"
       cy="281.4"
       r="2.7"
       fill="#E8772E"
       opacity="0.34"
       id="circle91" />
    <circle
       cx="1067.2"
       cy="307.8"
       r="2.7"
       fill="#84B9E6"
       opacity="0.44"
       id="circle93" />
    <circle
       cx="1349.7"
       cy="131.3"
       r="2.5"
       fill="#84B9E6"
       opacity="0.44"
       id="circle95" />
    <circle
       cx="716.7"
       cy="430.8"
       r="2.3"
       fill="#84B9E6"
       opacity="0.47"
       id="circle97" />
    <circle
       cx="1567.7"
       cy="455.4"
       r="3.1"
       fill="#84B9E6"
       opacity="0.51"
       id="circle99" />
    <circle
       cx="1121.2"
       cy="566.1"
       r="1.5"
       fill="#84B9E6"
       opacity="0.42"
       id="circle101" />
    <circle
       cx="1253.3"
       cy="429.6"
       r="2.7"
       fill="#E8772E"
       opacity="0.33"
       id="circle103" />
    <circle
       cx="1184.1"
       cy="574.8"
       r="1.6"
       fill="#84B9E6"
       opacity="0.41"
       id="circle105" />
    <circle
       cx="702.6"
       cy="146.8"
       r="2.9"
       fill="#84B9E6"
       opacity="0.37"
       id="circle107" />
    <circle
       cx="955.9"
       cy="432.0"
       r="3.0"
       fill="#84B9E6"
       opacity="0.34"
       id="circle109" />
    <circle
       cx="1270.2"
       cy="480.4"
       r="2.3"
       fill="#E8772E"
       opacity="0.45"
       id="circle111" />
    <circle
       cx="1172.2"
       cy="396.6"
       r="2.1"
       fill="#E8772E"
       opacity="0.44"
       id="circle113" />
    <circle
       cx="1574.8"
       cy="180.2"
       r="2.5"
       fill="#84B9E6"
       opacity="0.47"
       id="circle115" />
    <circle
       cx="1659.8"
       cy="469.3"
       r="2.9"
       fill="#84B9E6"
       opacity="0.50"
       id="circle117" />
    <circle
       cx="962.8"
       cy="474.3"
       r="2.5"
       fill="#E8772E"
       opacity="0.32"
       id="circle119" />
    <circle
       cx="1354.2"
       cy="378.4"
       r="2.0"
       fill="#E8772E"
       opacity="0.31"
       id="circle121" />
    <circle
       cx="1344.6"
       cy="300.2"
       r="2.1"
       fill="#E8772E"
       opacity="0.31"
       id="circle123" />
    <circle
       cx="1445.8"
       cy="32.0"
       r="1.9"
       fill="#E8772E"
       opacity="0.39"
       id="circle125" />
  </g>
  <path
     d="M 707.21 656.27 L 709.95 654.21 L 712.70 652.14 L 715.44 650.07 L 718.19 648.00 L 720.93 645.93 L 723.68 643.86 L 726.42 641.79 L 729.17 639.72 L 731.92 637.66 L 734.66 635.59 L 737.41 633.52 L 740.15 631.45 L 742.90 629.38 L 745.64 627.31 L 748.39 625.24 L 751.13 623.17 L 751.13 623.17 L 759.29 633.73 L 767.71 644.07 L 776.38 654.20 L 785.30 664.12 L 794.47 673.81 L 803.87 683.27 L 813.50 692.49 L 823.36 701.47 L 833.44 710.20 L 843.74 718.69 L 854.24 726.91 L 864.94 734.87 L 875.84 742.56 L 886.92 749.97 L 898.19 757.11 L 909.63 763.97 L 921.24 770.54 L 933.00 776.82 L 944.92 782.81 L 956.98 788.50 L 969.18 793.89 L 981.51 798.97 L 993.97 803.75 L 1006.53 808.21 L 1019.21 812.36 L 1031.98 816.20 L 1031.98 816.20 L 1032.57 814.15 L 1033.15 812.11 L 1033.74 810.07 L 1034.33 808.03 L 1034.91 805.98 L 1035.50 803.94 L 1036.08 801.90 L 1036.67 799.86 L 1037.25 797.81 L 1037.84 795.77 L 1038.43 793.73 L 1039.01 791.69 L 1039.60 789.64 L 1040.18 787.60 L 1040.77 785.56 L 1041.35 783.51 L 1041.35 783.51 L 1053.41 786.81 L 1065.53 789.80 L 1077.73 792.49 L 1090.00 794.88 L 1102.31 796.96 L 1114.68 798.74 L 1127.09 800.21 L 1139.53 801.37 L 1151.99 802.22 L 1164.47 802.76 L 1176.96 802.99 L 1189.45 802.91 L 1201.94 802.52 L 1214.41 801.82 L 1226.87 800.81 L 1239.29 799.49 L 1251.68 797.87 L 1264.02 795.93 L 1276.31 793.69 L 1288.54 791.15 L 1300.70 788.30 L 1312.79 785.15 L 1324.80 781.71 L 1336.72 777.96 L 1348.54 773.92 L 1360.26 769.59 L 1360.26 769.59 L 1359.50 767.61 L 1358.74 765.62 L 1357.97 763.64 L 1357.21 761.66 L 1356.45 759.67 L 1355.69 757.69 L 1354.93 755.70 L 1354.17 753.72 L 1353.41 751.74 L 1352.64 749.75 L 1351.88 747.77 L 1351.12 745.78 L 1350.36 743.80 L 1349.60 741.82 L 1348.84 739.83 L 1348.07 737.85 L 1348.07 737.85 L 1358.90 733.54 L 1369.61 728.96 L 1380.20 724.12 L 1390.67 719.02 L 1401.02 713.66 L 1411.22 708.04 L 1421.28 702.17 L 1431.20 696.06 L 1440.95 689.70 L 1450.55 683.10 L 1459.98 676.26 L 1469.24 669.19 L 1478.32 661.89 L 1487.22 654.37 L 1495.92 646.63 L 1504.43 638.68 L 1512.74 630.52 L 1520.85 622.15 L 1528.75 613.59 L 1536.43 604.83 L 1543.89 595.88 L 1551.12 586.76 L 1558.13 577.45 L 1564.90 567.97 L 1571.44 558.33 L 1577.73 548.53 L 1577.73 548.53 L 1575.93 547.41 L 1574.13 546.28 L 1572.33 545.15 L 1570.53 544.03 L 1568.72 542.90 L 1566.92 541.78 L 1565.12 540.65 L 1563.32 539.52 L 1561.52 538.40 L 1559.71 537.27 L 1557.91 536.15 L 1556.11 535.02 L 1554.31 533.89 L 1552.51 532.77 L 1550.70 531.64 L 1548.90 530.51 L 1548.90 530.51 L 1554.51 521.28 L 1559.89 511.91 L 1565.04 502.41 L 1569.95 492.79 L 1574.61 483.04 L 1579.04 473.19 L 1583.22 463.22 L 1587.14 453.16 L 1590.82 443.00 L 1594.25 432.76 L 1597.42 422.43 L 1600.33 412.02 L 1602.98 401.55 L 1605.37 391.01 L 1607.50 380.42 L 1609.37 369.78 L 1610.97 359.09 L 1612.30 348.37 L 1613.37 337.62 L 1614.17 326.85 L 1614.70 316.06 L 1614.97 305.26 L 1614.96 294.45 L 1614.69 283.65 L 1614.15 272.86 L 1613.34 262.09 L 1613.34 262.09 L 1611.23 262.27 L 1609.11 262.46 L 1606.99 262.64 L 1604.88 262.83 L 1602.76 263.01 L 1600.64 263.20 L 1598.53 263.38 L 1596.41 263.57 L 1594.29 263.75 L 1592.18 263.94 L 1590.06 264.12 L 1587.94 264.31 L 1585.82 264.49 L 1583.71 264.68 L 1581.59 264.87 L 1579.47 265.05 L 1579.47 265.05 L 1578.48 255.14 L 1577.25 245.26 L 1575.76 235.41 L 1574.04 225.60 L 1572.07 215.84 L 1569.86 206.13 L 1567.41 196.47 L 1564.72 186.88 L 1561.79 177.36 L 1558.62 167.92 L 1555.23 158.56 L 1551.60 149.28 L 1547.74 140.10 L 1543.66 131.02 L 1539.35 122.04 L 1534.82 113.17 L 1530.07 104.42 L 1525.10 95.78 L 1519.92 87.27 L 1514.54 78.90 L 1508.94 70.66 L 1503.15 62.56 L 1497.15 54.61 L 1490.96 46.81 L 1484.57 39.16 L 1478.00 31.68 L 1478.00 31.68 L 1476.42 33.10 L 1474.84 34.52 L 1473.26 35.94 L 1471.68 37.37 L 1470.11 38.79 L 1468.53 40.21 L 1466.95 41.63 L 1465.37 43.05 L 1463.79 44.48 L 1462.21 45.90 L 1460.63 47.32 L 1459.05 48.74 L 1457.47 50.16 L 1455.89 51.59 L 1454.31 53.01 L 1452.73 54.43 L 1452.73 54.43 L 1446.55 47.73 L 1440.20 41.19 L 1433.70 34.81 L 1427.03 28.59 L 1420.22 22.54 L 1413.25 16.66 L 1406.14 10.95 L 1398.89 5.42 L 1391.51 0.08 L 1384.00 -5.08 L 1376.36 -10.05 L 1368.60 -14.83 L 1360.72 -19.42 L 1352.73 -23.81 L 1344.64 -28.00 L 1336.44 -31.99 L 1328.15 -35.77 L 1319.76 -39.35 L 1311.29 -42.71 L 1302.74 -45.87 L 1294.11 -48.81 L 1285.41 -51.54 L 1276.65 -54.04 L 1267.83 -56.34 L 1258.95 -58.41 L 1250.03 -60.26 L 1250.03 -60.26 L 1249.62 -58.17 L 1249.22 -56.09 L 1248.81 -54.00 L 1248.41 -51.91 L 1248.00 -49.83 L 1247.59 -47.74 L 1247.19 -45.66 L 1246.78 -43.57 L 1246.38 -41.48 L 1245.97 -39.40 L 1245.57 -37.31 L 1245.16 -35.23 L 1244.76 -33.14 L 1244.35 -31.05 L 1243.94 -28.97 L 1243.54 -26.88 L 1243.54 -26.88 L 1235.40 -28.36 L 1227.23 -29.63 L 1219.03 -30.70 L 1210.80 -31.57 L 1202.56 -32.23 L 1194.30 -32.69 L 1186.04 -32.95 L 1177.76 -32.99 L 1169.50 -32.83 L 1161.23 -32.47 L 1152.98 -31.90 L 1144.75 -31.13 L 1136.53 -30.15 L 1128.35 -28.97 L 1120.19 -27.59 L 1112.08 -26.00 L 1104.00 -24.21 L 1095.97 -22.22 L 1088.00 -20.04 L 1080.08 -17.65 L 1072.22 -15.08 L 1064.43 -12.30 L 1056.71 -9.33 L 1049.06 -6.18 L 1041.50 -2.83 L 1034.02 0.70 L 1034.02 0.70 L 1034.95 2.61 L 1035.89 4.52 L 1036.82 6.43 L 1037.75 8.34 L 1038.68 10.25 L 1039.61 12.16 L 1040.54 14.07 L 1041.47 15.98 L 1042.41 17.89 L 1043.34 19.80 L 1044.27 21.71 L 1045.20 23.62 L 1046.13 25.53 L 1047.06 27.44 L 1048.00 29.35 L 1048.93 31.26 L 1048.93 31.26 L 1042.29 34.60 L 1035.74 38.10 L 1029.28 41.76 L 1022.92 45.59 L 1016.65 49.57 L 1010.48 53.70 L 1004.41 57.99 L 998.46 62.42 L 992.61 67.00 L 986.89 71.73 L 981.28 76.60 L 975.79 81.60 L 970.43 86.74 L 965.20 92.01 L 960.10 97.41 L 955.13 102.93 L 950.31 108.58 L 945.63 114.34 L 941.09 120.22 L 936.70 126.21 L 932.45 132.30 L 928.37 138.50 L 924.43 144.80 L 920.66 151.20 L 917.04 157.68 L 913.59 164.26 L 913.59 164.26 L 915.48 165.22 L 917.38 166.19 L 919.27 167.15 L 921.16 168.12 L 923.06 169.08 L 924.95 170.05 L 926.84 171.01 L 928.74 171.97 L 930.63 172.94 L 932.52 173.90 L 934.42 174.87 L 936.31 175.83 L 938.20 176.80 L 940.10 177.76 L 941.99 178.73 L 943.88 179.69 L 943.88 179.69 L 940.97 185.59 L 938.20 191.57 L 935.58 197.60 L 933.11 203.71 L 930.80 209.87 L 928.64 216.08 L 926.63 222.35 L 924.78 228.67 L 923.09 235.03 L 921.55 241.43 L 920.18 247.86 L 918.96 254.33 L 917.91 260.83 L 917.02 267.35 L 916.29 273.89 L 915.72 280.45 L 915.32 287.02 L 915.08 293.60 L 915.00 300.18 L 915.09 306.76 L 915.34 313.34 L 915.75 319.90 L 916.32 326.46 L 917.06 333.00 L 917.96 339.52 L 919.03 346.02 L 919.03 346.02 L 921.12 345.65 L 923.21 345.28 L 925.30 344.91 L 927.40 344.54 L 929.49 344.17 L 931.58 343.80 L 933.67 343.43 L 935.77 343.06 L 937.86 342.70 L 939.95 342.33 L 942.05 341.96 L 944.14 341.59 L 946.23 341.22 L 948.32 340.85 L 950.42 340.48 L 952.51 340.11 L 952.51 340.11 L 953.58 345.75 L 954.78 351.36 L 956.13 356.94 L 957.61 362.48 L 959.23 367.98 L 960.99 373.44 L 962.88 378.86 L 964.90 384.23 L 967.06 389.54 L 969.35 394.81 L 971.77 400.01 L 974.32 405.15 L 976.99 410.22 L 979.79 415.23 L 982.72 420.17 L 985.76 425.03 L 988.93 429.82 L 992.21 434.52 L 995.61 439.14 L 999.12 443.68 L 1002.75 448.13 L 1006.48 452.48 L 1010.32 456.75 L 1014.26 460.91 L 1018.31 464.98 L 1022.46 468.94 L 1022.46 468.94 L 1023.91 467.39 L 1025.36 465.83 L 1026.81 464.28 L 1028.26 462.73 L 1029.70 461.17 L 1031.15 459.62 L 1032.60 458.06 L 1034.05 456.51 L 1035.50 454.96 L 1036.95 453.40 L 1038.40 451.85 L 1039.85 450.29 L 1041.30 448.74 L 1042.75 447.18 L 1044.20 445.63 L 1045.65 444.08 L 1045.65 444.08 L 1049.27 447.37 L 1052.97 450.57 L 1056.74 453.68 L 1060.60 456.69 L 1064.53 459.61 L 1068.53 462.43 L 1072.60 465.15 L 1076.73 467.76 L 1080.93 470.28 L 1085.19 472.68 L 1089.51 474.98 L 1093.88 477.18 L 1098.31 479.26 L 1102.78 481.24 L 1107.31 483.10 L 1111.88 484.85 L 1116.49 486.48 L 1121.14 488.00 L 1125.83 489.40 L 1130.55 490.69 L 1135.30 491.86 L 1140.08 492.91 L 1144.88 493.84 L 1149.70 494.66 L 1154.55 495.35 L 1159.41 495.92 L 1159.41 495.92 L 1159.63 493.81 L 1159.85 491.69 L 1160.07 489.58 L 1160.30 487.47 L 1160.52 485.35 L 1160.74 483.24 L 1160.96 481.13 L 1161.18 479.01 L 1161.41 476.90 L 1161.63 474.79 L 1161.85 472.67 L 1162.07 470.56 L 1162.30 468.45 L 1162.52 466.33 L 1162.74 464.22 L 1162.96 462.11 L 1162.96 462.11 L 1166.99 462.48 L 1171.03 462.75 L 1175.08 462.93 L 1179.12 463.00 L 1183.17 462.97 L 1187.22 462.84 L 1191.26 462.61 L 1195.30 462.28 L 1199.32 461.85 L 1203.34 461.32 L 1207.33 460.69 L 1211.32 459.96 L 1215.28 459.14 L 1219.22 458.21 L 1223.14 457.19 L 1227.03 456.07 L 1230.89 454.85 L 1234.72 453.54 L 1238.52 452.13 L 1242.28 450.63 L 1246.00 449.04 L 1249.68 447.36 L 1253.32 445.58 L 1256.91 443.71 L 1260.46 441.76 L 1263.95 439.72 L 1263.95 439.72 L 1262.86 437.90 L 1261.76 436.08 L 1260.67 434.25 L 1259.57 432.43 L 1258.48 430.61 L 1257.38 428.79 L 1256.29 426.97 L 1255.20 425.15 L 1254.10 423.32 L 1253.01 421.50 L 1251.91 419.68 L 1250.82 417.86 L 1249.72 416.04 L 1248.63 414.22 L 1247.53 412.40 L 1246.44 410.57 L 1246.44 410.57 L 1249.17 408.89 L 1251.85 407.14 L 1254.49 405.32 L 1257.08 403.44 L 1259.62 401.49 L 1262.12 399.48 L 1264.57 397.41 L 1266.96 395.28 L 1269.30 393.10 L 1271.58 390.85 L 1273.81 388.55 L 1275.98 386.19 L 1278.09 383.78 L 1280.14 381.32 L 1282.13 378.80 L 1284.06 376.24 L 1285.92 373.64 L 1287.71 370.98 L 1289.44 368.29 L 1291.11 365.55 L 1292.70 362.77 L 1294.22 359.95 L 1295.68 357.09 L 1297.06 354.20 L 1298.37 351.28 L 1299.61 348.32 L 1299.61 348.32 L 1297.64 347.53 L 1295.67 346.73 L 1293.70 345.94 L 1291.73 345.14 L 1289.76 344.34 L 1287.79 343.55 L 1285.81 342.75 L 1283.84 341.96 L 1281.87 341.16 L 1279.90 340.36 L 1277.93 339.57 L 1275.96 338.77 L 1273.99 337.98 L 1272.02 337.18 L 1270.05 336.38 L 1268.08 335.59 L 1268.08 335.59 L 1268.94 333.39 L 1269.74 331.17 L 1270.49 328.93 L 1271.18 326.68 L 1271.81 324.40 L 1272.39 322.12 L 1272.91 319.81 L 1273.37 317.50 L 1273.78 315.18 L 1274.13 312.84 L 1274.42 310.50 L 1274.65 308.15 L 1274.82 305.80 L 1274.94 303.44 L 1274.99 301.08 L 1274.99 298.72 L 1274.93 296.37 L 1274.81 294.01 L 1274.63 291.66 L 1274.40 289.31 L 1274.10 286.97 L 1273.75 284.64 L 1273.34 282.31 L 1272.87 280.00 L 1272.35 277.70 L 1271.76 275.41 L 1271.76 275.41 L 1268.44 276.30 L 1265.12 277.19 L 1261.80 278.08 L 1258.48 278.97 L 1255.16 279.86 L 1251.84 280.75 L 1248.52 281.64 L 1245.20 282.53 L 1241.88 283.42 L 1238.56 284.31 L 1235.24 285.20 L 1231.92 286.09 L 1228.60 286.98 L 1225.28 287.87 L 1221.96 288.76 L 1218.64 289.65"
     fill="none"
     stroke="#E8772E"
     stroke-width="13"
     opacity="0.22"
     stroke-linecap="round"
     stroke-linejoin="round"
     id="path129" />
  <path
     d="M 707.21 656.27 L 709.95 654.21 L 712.70 652.14 L 715.44 650.07 L 718.19 648.00 L 720.93 645.93 L 723.68 643.86 L 726.42 641.79 L 729.17 639.72 L 731.92 637.66 L 734.66 635.59 L 737.41 633.52 L 740.15 631.45 L 742.90 629.38 L 745.64 627.31 L 748.39 625.24 L 751.13 623.17 L 751.13 623.17 L 759.29 633.73 L 767.71 644.07 L 776.38 654.20 L 785.30 664.12 L 794.47 673.81 L 803.87 683.27 L 813.50 692.49 L 823.36 701.47 L 833.44 710.20 L 843.74 718.69 L 854.24 726.91 L 864.94 734.87 L 875.84 742.56 L 886.92 749.97 L 898.19 757.11 L 909.63 763.97 L 921.24 770.54 L 933.00 776.82 L 944.92 782.81 L 956.98 788.50 L 969.18 793.89 L 981.51 798.97 L 993.97 803.75 L 1006.53 808.21 L 1019.21 812.36 L 1031.98 816.20 L 1031.98 816.20 L 1032.57 814.15 L 1033.15 812.11 L 1033.74 810.07 L 1034.33 808.03 L 1034.91 805.98 L 1035.50 803.94 L 1036.08 801.90 L 1036.67 799.86 L 1037.25 797.81 L 1037.84 795.77 L 1038.43 793.73 L 1039.01 791.69 L 1039.60 789.64 L 1040.18 787.60 L 1040.77 785.56 L 1041.35 783.51 L 1041.35 783.51 L 1053.41 786.81 L 1065.53 789.80 L 1077.73 792.49 L 1090.00 794.88 L 1102.31 796.96 L 1114.68 798.74 L 1127.09 800.21 L 1139.53 801.37 L 1151.99 802.22 L 1164.47 802.76 L 1176.96 802.99 L 1189.45 802.91 L 1201.94 802.52 L 1214.41 801.82 L 1226.87 800.81 L 1239.29 799.49 L 1251.68 797.87 L 1264.02 795.93 L 1276.31 793.69 L 1288.54 791.15 L 1300.70 788.30 L 1312.79 785.15 L 1324.80 781.71 L 1336.72 777.96 L 1348.54 773.92 L 1360.26 769.59 L 1360.26 769.59 L 1359.50 767.61 L 1358.74 765.62 L 1357.97 763.64 L 1357.21 761.66 L 1356.45 759.67 L 1355.69 757.69 L 1354.93 755.70 L 1354.17 753.72 L 1353.41 751.74 L 1352.64 749.75 L 1351.88 747.77 L 1351.12 745.78 L 1350.36 743.80 L 1349.60 741.82 L 1348.84 739.83 L 1348.07 737.85 L 1348.07 737.85 L 1358.90 733.54 L 1369.61 728.96 L 1380.20 724.12 L 1390.67 719.02 L 1401.02 713.66 L 1411.22 708.04 L 1421.28 702.17 L 1431.20 696.06 L 1440.95 689.70 L 1450.55 683.10 L 1459.98 676.26 L 1469.24 669.19 L 1478.32 661.89 L 1487.22 654.37 L 1495.92 646.63 L 1504.43 638.68 L 1512.74 630.52 L 1520.85 622.15 L 1528.75 613.59 L 1536.43 604.83 L 1543.89 595.88 L 1551.12 586.76 L 1558.13 577.45 L 1564.90 567.97 L 1571.44 558.33 L 1577.73 548.53 L 1577.73 548.53 L 1575.93 547.41 L 1574.13 546.28 L 1572.33 545.15 L 1570.53 544.03 L 1568.72 542.90 L 1566.92 541.78 L 1565.12 540.65 L 1563.32 539.52 L 1561.52 538.40 L 1559.71 537.27 L 1557.91 536.15 L 1556.11 535.02 L 1554.31 533.89 L 1552.51 532.77 L 1550.70 531.64 L 1548.90 530.51 L 1548.90 530.51 L 1554.51 521.28 L 1559.89 511.91 L 1565.04 502.41 L 1569.95 492.79 L 1574.61 483.04 L 1579.04 473.19 L 1583.22 463.22 L 1587.14 453.16 L 1590.82 443.00 L 1594.25 432.76 L 1597.42 422.43 L 1600.33 412.02 L 1602.98 401.55 L 1605.37 391.01 L 1607.50 380.42 L 1609.37 369.78 L 1610.97 359.09 L 1612.30 348.37 L 1613.37 337.62 L 1614.17 326.85 L 1614.70 316.06 L 1614.97 305.26 L 1614.96 294.45 L 1614.69 283.65 L 1614.15 272.86 L 1613.34 262.09 L 1613.34 262.09 L 1611.23 262.27 L 1609.11 262.46 L 1606.99 262.64 L 1604.88 262.83 L 1602.76 263.01 L 1600.64 263.20 L 1598.53 263.38 L 1596.41 263.57 L 1594.29 263.75 L 1592.18 263.94 L 1590.06 264.12 L 1587.94 264.31 L 1585.82 264.49 L 1583.71 264.68 L 1581.59 264.87 L 1579.47 265.05 L 1579.47 265.05 L 1578.48 255.14 L 1577.25 245.26 L 1575.76 235.41 L 1574.04 225.60 L 1572.07 215.84 L 1569.86 206.13 L 1567.41 196.47 L 1564.72 186.88 L 1561.79 177.36 L 1558.62 167.92 L 1555.23 158.56 L 1551.60 149.28 L 1547.74 140.10 L 1543.66 131.02 L 1539.35 122.04 L 1534.82 113.17 L 1530.07 104.42 L 1525.10 95.78 L 1519.92 87.27 L 1514.54 78.90 L 1508.94 70.66 L 1503.15 62.56 L 1497.15 54.61 L 1490.96 46.81 L 1484.57 39.16 L 1478.00 31.68 L 1478.00 31.68 L 1476.42 33.10 L 1474.84 34.52 L 1473.26 35.94 L 1471.68 37.37 L 1470.11 38.79 L 1468.53 40.21 L 1466.95 41.63 L 1465.37 43.05 L 1463.79 44.48 L 1462.21 45.90 L 1460.63 47.32 L 1459.05 48.74 L 1457.47 50.16 L 1455.89 51.59 L 1454.31 53.01 L 1452.73 54.43 L 1452.73 54.43 L 1446.55 47.73 L 1440.20 41.19 L 1433.70 34.81 L 1427.03 28.59 L 1420.22 22.54 L 1413.25 16.66 L 1406.14 10.95 L 1398.89 5.42 L 1391.51 0.08 L 1384.00 -5.08 L 1376.36 -10.05 L 1368.60 -14.83 L 1360.72 -19.42 L 1352.73 -23.81 L 1344.64 -28.00 L 1336.44 -31.99 L 1328.15 -35.77 L 1319.76 -39.35 L 1311.29 -42.71 L 1302.74 -45.87 L 1294.11 -48.81 L 1285.41 -51.54 L 1276.65 -54.04 L 1267.83 -56.34 L 1258.95 -58.41 L 1250.03 -60.26 L 1250.03 -60.26 L 1249.62 -58.17 L 1249.22 -56.09 L 1248.81 -54.00 L 1248.41 -51.91 L 1248.00 -49.83 L 1247.59 -47.74 L 1247.19 -45.66 L 1246.78 -43.57 L 1246.38 -41.48 L 1245.97 -39.40 L 1245.57 -37.31 L 1245.16 -35.23 L 1244.76 -33.14 L 1244.35 -31.05 L 1243.94 -28.97 L 1243.54 -26.88 L 1243.54 -26.88 L 1235.40 -28.36 L 1227.23 -29.63 L 1219.03 -30.70 L 1210.80 -31.57 L 1202.56 -32.23 L 1194.30 -32.69 L 1186.04 -32.95 L 1177.76 -32.99 L 1169.50 -32.83 L 1161.23 -32.47 L 1152.98 -31.90 L 1144.75 -31.13 L 1136.53 -30.15 L 1128.35 -28.97 L 1120.19 -27.59 L 1112.08 -26.00 L 1104.00 -24.21 L 1095.97 -22.22 L 1088.00 -20.04 L 1080.08 -17.65 L 1072.22 -15.08 L 1064.43 -12.30 L 1056.71 -9.33 L 1049.06 -6.18 L 1041.50 -2.83 L 1034.02 0.70 L 1034.02 0.70 L 1034.95 2.61 L 1035.89 4.52 L 1036.82 6.43 L 1037.75 8.34 L 1038.68 10.25 L 1039.61 12.16 L 1040.54 14.07 L 1041.47 15.98 L 1042.41 17.89 L 1043.34 19.80 L 1044.27 21.71 L 1045.20 23.62 L 1046.13 25.53 L 1047.06 27.44 L 1048.00 29.35 L 1048.93 31.26 L 1048.93 31.26 L 1042.29 34.60 L 1035.74 38.10 L 1029.28 41.76 L 1022.92 45.59 L 1016.65 49.57 L 1010.48 53.70 L 1004.41 57.99 L 998.46 62.42 L 992.61 67.00 L 986.89 71.73 L 981.28 76.60 L 975.79 81.60 L 970.43 86.74 L 965.20 92.01 L 960.10 97.41 L 955.13 102.93 L 950.31 108.58 L 945.63 114.34 L 941.09 120.22 L 936.70 126.21 L 932.45 132.30 L 928.37 138.50 L 924.43 144.80 L 920.66 151.20 L 917.04 157.68 L 913.59 164.26 L 913.59 164.26 L 915.48 165.22 L 917.38 166.19 L 919.27 167.15 L 921.16 168.12 L 923.06 169.08 L 924.95 170.05 L 926.84 171.01 L 928.74 171.97 L 930.63 172.94 L 932.52 173.90 L 934.42 174.87 L 936.31 175.83 L 938.20 176.80 L 940.10 177.76 L 941.99 178.73 L 943.88 179.69 L 943.88 179.69 L 940.97 185.59 L 938.20 191.57 L 935.58 197.60 L 933.11 203.71 L 930.80 209.87 L 928.64 216.08 L 926.63 222.35 L 924.78 228.67 L 923.09 235.03 L 921.55 241.43 L 920.18 247.86 L 918.96 254.33 L 917.91 260.83 L 917.02 267.35 L 916.29 273.89 L 915.72 280.45 L 915.32 287.02 L 915.08 293.60 L 915.00 300.18 L 915.09 306.76 L 915.34 313.34 L 915.75 319.90 L 916.32 326.46 L 917.06 333.00 L 917.96 339.52 L 919.03 346.02 L 919.03 346.02 L 921.12 345.65 L 923.21 345.28 L 925.30 344.91 L 927.40 344.54 L 929.49 344.17 L 931.58 343.80 L 933.67 343.43 L 935.77 343.06 L 937.86 342.70 L 939.95 342.33 L 942.05 341.96 L 944.14 341.59 L 946.23 341.22 L 948.32 340.85 L 950.42 340.48 L 952.51 340.11 L 952.51 340.11 L 953.58 345.75 L 954.78 351.36 L 956.13 356.94 L 957.61 362.48 L 959.23 367.98 L 960.99 373.44 L 962.88 378.86 L 964.90 384.23 L 967.06 389.54 L 969.35 394.81 L 971.77 400.01 L 974.32 405.15 L 976.99 410.22 L 979.79 415.23 L 982.72 420.17 L 985.76 425.03 L 988.93 429.82 L 992.21 434.52 L 995.61 439.14 L 999.12 443.68 L 1002.75 448.13 L 1006.48 452.48 L 1010.32 456.75 L 1014.26 460.91 L 1018.31 464.98 L 1022.46 468.94 L 1022.46 468.94 L 1023.91 467.39 L 1025.36 465.83 L 1026.81 464.28 L 1028.26 462.73 L 1029.70 461.17 L 1031.15 459.62 L 1032.60 458.06 L 1034.05 456.51 L 1035.50 454.96 L 1036.95 453.40 L 1038.40 451.85 L 1039.85 450.29 L 1041.30 448.74 L 1042.75 447.18 L 1044.20 445.63 L 1045.65 444.08 L 1045.65 444.08 L 1049.27 447.37 L 1052.97 450.57 L 1056.74 453.68 L 1060.60 456.69 L 1064.53 459.61 L 1068.53 462.43 L 1072.60 465.15 L 1076.73 467.76 L 1080.93 470.28 L 1085.19 472.68 L 1089.51 474.98 L 1093.88 477.18 L 1098.31 479.26 L 1102.78 481.24 L 1107.31 483.10 L 1111.88 484.85 L 1116.49 486.48 L 1121.14 488.00 L 1125.83 489.40 L 1130.55 490.69 L 1135.30 491.86 L 1140.08 492.91 L 1144.88 493.84 L 1149.70 494.66 L 1154.55 495.35 L 1159.41 495.92 L 1159.41 495.92 L 1159.63 493.81 L 1159.85 491.69 L 1160.07 489.58 L 1160.30 487.47 L 1160.52 485.35 L 1160.74 483.24 L 1160.96 481.13 L 1161.18 479.01 L 1161.41 476.90 L 1161.63 474.79 L 1161.85 472.67 L 1162.07 470.56 L 1162.30 468.45 L 1162.52 466.33 L 1162.74 464.22 L 1162.96 462.11 L 1162.96 462.11 L 1166.99 462.48 L 1171.03 462.75 L 1175.08 462.93 L 1179.12 463.00 L 1183.17 462.97 L 1187.22 462.84 L 1191.26 462.61 L 1195.30 462.28 L 1199.32 461.85 L 1203.34 461.32 L 1207.33 460.69 L 1211.32 459.96 L 1215.28 459.14 L 1219.22 458.21 L 1223.14 457.19 L 1227.03 456.07 L 1230.89 454.85 L 1234.72 453.54 L 1238.52 452.13 L 1242.28 450.63 L 1246.00 449.04 L 1249.68 447.36 L 1253.32 445.58 L 1256.91 443.71 L 1260.46 441.76 L 1263.95 439.72 L 1263.95 439.72 L 1262.86 437.90 L 1261.76 436.08 L 1260.67 434.25 L 1259.57 432.43 L 1258.48 430.61 L 1257.38 428.79 L 1256.29 426.97 L 1255.20 425.15 L 1254.10 423.32 L 1253.01 421.50 L 1251.91 419.68 L 1250.82 417.86 L 1249.72 416.04 L 1248.63 414.22 L 1247.53 412.40 L 1246.44 410.57 L 1246.44 410.57 L 1249.17 408.89 L 1251.85 407.14 L 1254.49 405.32 L 1257.08 403.44 L 1259.62 401.49 L 1262.12 399.48 L 1264.57 397.41 L 1266.96 395.28 L 1269.30 393.10 L 1271.58 390.85 L 1273.81 388.55 L 1275.98 386.19 L 1278.09 383.78 L 1280.14 381.32 L 1282.13 378.80 L 1284.06 376.24 L 1285.92 373.64 L 1287.71 370.98 L 1289.44 368.29 L 1291.11 365.55 L 1292.70 362.77 L 1294.22 359.95 L 1295.68 357.09 L 1297.06 354.20 L 1298.37 351.28 L 1299.61 348.32 L 1299.61 348.32 L 1297.64 347.53 L 1295.67 346.73 L 1293.70 345.94 L 1291.73 345.14 L 1289.76 344.34 L 1287.79 343.55 L 1285.81 342.75 L 1283.84 341.96 L 1281.87 341.16 L 1279.90 340.36 L 1277.93 339.57 L 1275.96 338.77 L 1273.99 337.98 L 1272.02 337.18 L 1270.05 336.38 L 1268.08 335.59 L 1268.08 335.59 L 1268.94 333.39 L 1269.74 331.17 L 1270.49 328.93 L 1271.18 326.68 L 1271.81 324.40 L 1272.39 322.12 L 1272.91 319.81 L 1273.37 317.50 L 1273.78 315.18 L 1274.13 312.84 L 1274.42 310.50 L 1274.65 308.15 L 1274.82 305.80 L 1274.94 303.44 L 1274.99 301.08 L 1274.99 298.72 L 1274.93 296.37 L 1274.81 294.01 L 1274.63 291.66 L 1274.40 289.31 L 1274.10 286.97 L 1273.75 284.64 L 1273.34 282.31 L 1272.87 280.00 L 1272.35 277.70 L 1271.76 275.41 L 1271.76 275.41 L 1268.44 276.30 L 1265.12 277.19 L 1261.80 278.08 L 1258.48 278.97 L 1255.16 279.86 L 1251.84 280.75 L 1248.52 281.64 L 1245.20 282.53 L 1241.88 283.42 L 1238.56 284.31 L 1235.24 285.20 L 1231.92 286.09 L 1228.60 286.98 L 1225.28 287.87 L 1221.96 288.76 L 1218.64 289.65"
     fill="none"
     stroke="#E8772E"
     stroke-width="4.5"
     stroke-linecap="round"
     stroke-linejoin="round"
     id="path131" />
  <circle
     cx="751.1"
     cy="623.2"
     r="3.2"
     fill="#001524"
     stroke="#E8772E"
     stroke-width="2"
     id="circle133" />
  <circle
     cx="898.2"
     cy="757.1"
     r="3.2"
     fill="#001524"
     stroke="#E8772E"
     stroke-width="2"
     id="circle135" />
  <circle
     cx="1034.3"
     cy="808.0"
     r="3.2"
     fill="#001524"
     stroke="#E8772E"
     stroke-width="2"
     id="circle137" />
  <circle
     cx="1077.7"
     cy="792.5"
     r="3.2"
     fill="#001524"
     stroke="#E8772E"
     stroke-width="2"
     id="circle139" />
  <circle
     cx="1276.3"
     cy="793.7"
     r="3.2"
     fill="#001524"
     stroke="#E8772E"
     stroke-width="2"
     id="circle141" />
  <circle
     cx="1354.2"
     cy="753.7"
     r="3.2"
     fill="#001524"
     stroke="#E8772E"
     stroke-width="2"
     id="circle143" />
  <circle
     cx="1421.3"
     cy="702.2"
     r="3.2"
     fill="#001524"
     stroke="#E8772E"
     stroke-width="2"
     id="circle145" />
  <circle
     cx="1558.1"
     cy="577.5"
     r="3.2"
     fill="#001524"
     stroke="#E8772E"
     stroke-width="2"
     id="circle147" />
  <circle
     cx="1556.1"
     cy="535.0"
     r="3.2"
     fill="#001524"
     stroke="#E8772E"
     stroke-width="2"
     id="circle149" />
  <circle
     cx="1597.4"
     cy="422.4"
     r="3.2"
     fill="#001524"
     stroke="#E8772E"
     stroke-width="2"
     id="circle151" />
  <circle
     cx="1613.3"
     cy="262.1"
     r="3.2"
     fill="#001524"
     stroke="#E8772E"
     stroke-width="2"
     id="circle153" />
  <circle
     cx="1579.5"
     cy="265.1"
     r="3.2"
     fill="#001524"
     stroke="#E8772E"
     stroke-width="2"
     id="circle155" />
  <circle
     cx="1539.3"
     cy="122.0"
     r="3.2"
     fill="#001524"
     stroke="#E8772E"
     stroke-width="2"
     id="circle157" />
  <circle
     cx="1471.7"
     cy="37.4"
     r="3.2"
     fill="#001524"
     stroke="#E8772E"
     stroke-width="2"
     id="circle159" />
  <circle
     cx="1433.7"
     cy="34.8"
     r="3.2"
     fill="#001524"
     stroke="#E8772E"
     stroke-width="2"
     id="circle161" />
  <circle
     cx="1311.3"
     cy="-42.7"
     r="3.2"
     fill="#001524"
     stroke="#E8772E"
     stroke-width="2"
     id="circle163" />
  <circle
     cx="1246.8"
     cy="-43.6"
     r="3.2"
     fill="#001524"
     stroke="#E8772E"
     stroke-width="2"
     id="circle165" />
  <circle
     cx="1186.0"
     cy="-32.9"
     r="3.2"
     fill="#001524"
     stroke="#E8772E"
     stroke-width="2"
     id="circle167" />
  <circle
     cx="1056.7"
     cy="-9.3"
     r="3.2"
     fill="#001524"
     stroke="#E8772E"
     stroke-width="2"
     id="circle169" />
  <circle
     cx="1045.2"
     cy="23.6"
     r="3.2"
     fill="#001524"
     stroke="#E8772E"
     stroke-width="2"
     id="circle171" />
  <circle
     cx="981.3"
     cy="76.6"
     r="3.2"
     fill="#001524"
     stroke="#E8772E"
     stroke-width="2"
     id="circle173" />
  <circle
     cx="913.6"
     cy="164.3"
     r="3.2"
     fill="#001524"
     stroke="#E8772E"
     stroke-width="2"
     id="circle175" />
  <circle
     cx="943.9"
     cy="179.7"
     r="3.2"
     fill="#001524"
     stroke="#E8772E"
     stroke-width="2"
     id="circle177" />
  <circle
     cx="916.3"
     cy="273.9"
     r="3.2"
     fill="#001524"
     stroke="#E8772E"
     stroke-width="2"
     id="circle179" />
  <circle
     cx="927.4"
     cy="344.5"
     r="3.2"
     fill="#001524"
     stroke="#E8772E"
     stroke-width="2"
     id="circle181" />
  <circle
     cx="956.1"
     cy="356.9"
     r="3.2"
     fill="#001524"
     stroke="#E8772E"
     stroke-width="2"
     id="circle183" />
  <circle
     cx="995.6"
     cy="439.1"
     r="3.2"
     fill="#001524"
     stroke="#E8772E"
     stroke-width="2"
     id="circle185" />
  <circle
     cx="1034.1"
     cy="456.5"
     r="3.2"
     fill="#001524"
     stroke="#E8772E"
     stroke-width="2"
     id="circle187" />
  <circle
     cx="1072.6"
     cy="465.1"
     r="3.2"
     fill="#001524"
     stroke="#E8772E"
     stroke-width="2"
     id="circle189" />
  <circle
     cx="1144.9"
     cy="493.8"
     r="3.2"
     fill="#001524"
     stroke="#E8772E"
     stroke-width="2"
     id="circle191" />
  <circle
     cx="1162.1"
     cy="470.6"
     r="3.2"
     fill="#001524"
     stroke="#E8772E"
     stroke-width="2"
     id="circle193" />
  <circle
     cx="1207.3"
     cy="460.7"
     r="3.2"
     fill="#001524"
     stroke="#E8772E"
     stroke-width="2"
     id="circle195" />
  <circle
     cx="1264.0"
     cy="439.7"
     r="3.2"
     fill="#001524"
     stroke="#E8772E"
     stroke-width="2"
     id="circle197" />
  <circle
     cx="1246.4"
     cy="410.6"
     r="3.2"
     fill="#001524"
     stroke="#E8772E"
     stroke-width="2"
     id="circle199" />
  <circle
     cx="1282.1"
     cy="378.8"
     r="3.2"
     fill="#001524"
     stroke="#E8772E"
     stroke-width="2"
     id="circle201" />
  <circle
     cx="1291.7"
     cy="345.1"
     r="3.2"
     fill="#001524"
     stroke="#E8772E"
     stroke-width="2"
     id="circle203" />
  <circle
     cx="1270.5"
     cy="328.9"
     r="3.2"
     fill="#001524"
     stroke="#E8772E"
     stroke-width="2"
     id="circle205" />
  <circle
     cx="1274.6"
     cy="291.7"
     r="3.2"
     fill="#001524"
     stroke="#E8772E"
     stroke-width="2"
     id="circle207" />
  <circle
     cx="1251.7765"
     cy="280.97824"
     r="3.2"
     fill="#001524"
     stroke="#e8772e"
     stroke-width="2"
     id="circle209" />
  <circle
     cx="1218.0795"
     cy="290.18506"
     r="3.2"
     fill="#001524"
     stroke="#e8772e"
     stroke-width="2"
     id="circle209-9" />
  <circle
     cx="751.1"
     cy="623.2"
     r="6.5"
     fill="none"
     stroke="#C7D2DA"
     stroke-width="2.4"
     opacity="0.8"
     id="circle211" />
  <circle
     cx="1180"
     cy="300"
     r="56"
     fill="#E8772E"
     opacity="0.30"
     filter="url(#soft)"
     id="circle213" />
  <circle
     cx="1180.7618"
     cy="301.14246"
     r="33.921463"
     fill="url(#origin)"
     id="circle215"
     style="fill:url(#origin);stroke-width:1.21148" />
  <circle
     cx="1211.1816"
     cy="133.88147"
     r="33.053844"
     class="navy"
     id="circle70"
     style="fill:#e8772e;fill-opacity:1;stroke-width:0.60098"
     transform="rotate(8.0000002)" />
  <circle
     cx="1211.1816"
     cy="133.88147"
     r="21.034267"
     fill="#082b63"
     id="circle72"
     transform="rotate(8.0000002)"
     style="fill:#5e412d;fill-opacity:1;stroke-width:0.60098" />
  <circle
     cx="1211.1816"
     cy="133.88147"
     r="15.024476"
     fill="#001b4d"
     id="circle74"
     transform="rotate(8.0000002)"
     style="fill:#0c1f2d;fill-opacity:1;stroke-width:0.60098" />
  <circle
     cx="1222.6228"
     cy="117.80761"
     r="7.8127275"
     fill="#ffffff"
     id="circle76"
     transform="rotate(8.0000002)"
     style="stroke-width:0.60098" />
</svg>
